<?xml version="1.0" standalone="no"?>
<!DOCTYPE svg PUBLIC "-//W3C//DTD SVG 20010904//EN"
 "http://www.w3.org/TR/2001/REC-SVG-20010904/DTD/svg10.dtd">
<svg version="1.0" xmlns="http://www.w3.org/2000/svg"
 width="256.000000pt" height="256.000000pt" viewBox="0 0 256.000000 256.000000"
 preserveAspectRatio="xMidYMid meet">

<g transform="translate(0.000000,256.000000) scale(0.100000,-0.100000)"
fill="#000000" stroke="none">
<path d="M402 2541 c-29 -10 -70 -32 -90 -48 -75 -61 -86 -90 -203 -557 -60
-240 -109 -456 -109 -481 0 -119 52 -244 141 -339 l59 -64 0 -103 0 -104 -100
-100 -100 -100 0 -322 0 -323 300 0 300 0 0 323 0 322 -100 100 -100 100 0 61
0 61 73 -5 c193 -12 390 70 535 222 114 120 192 308 192 461 0 84 41 127 105
111 32 -8 55 -54 55 -110 0 -88 28 -199 76 -296 39 -79 62 -110 133 -181 72
-72 102 -94 181 -132 142 -69 286 -92 412 -66 223 47 398 259 398 484 0 25
-49 241 -109 481 -119 474 -128 499 -209 561 -55 41 -127 63 -214 63 l-68 0 0
-100 0 -100 60 0 c72 0 113 -18 128 -57 6 -15 40 -144 76 -285 l64 -258 -372
0 -372 0 -13 37 c-8 20 -35 58 -61 84 -105 105 -275 105 -380 0 -26 -26 -53
-64 -61 -84 l-13 -37 -372 0 -372 0 64 258 c36 141 70 270 76 285 15 39 56 57
128 57 l60 0 0 100 0 100 -72 0 c-44 -1 -94 -8 -126 -19z m588 -984 c0 -2 -9
-30 -20 -62 -100 -291 -472 -432 -673 -256 -69 61 -114 195 -87 261 24 58 30
59 423 60 196 0 357 -2 357 -3z m1319 -12 c59 -30 65 -120 15 -222 -102 -209
-412 -216 -615 -14 -63 64 -116 152 -133 224 l-6 27 355 0 c292 0 361 -3 384
-15z m-1957 -942 l48 -47 0 -178 0 -178 -100 0 -100 0 0 177 0 177 47 48 c26
26 50 48 52 48 3 0 27 -21 53 -47z"/>
</g>
</svg>
